<svg id="Calque_1" data-name="Calque 1" xmlns="http://www.w3.org/2000/svg" viewBox="0 0 841.89 595.28"><defs><style>.cls-1{fill:#e6e7e8;stroke:#231f20;}.cls-1,.cls-3{stroke-miterlimit:10;}.cls-2{fill:#808285;}.cls-3{fill:#f1f2f2;stroke:#000;stroke-linecap:round;stroke-width:2px;}</style></defs><title>png</title><circle class="cls-1" cx="420.94" cy="278.86" r="112.67"/><path class="cls-2" d="M342,314.82l92.91,75.85s51.9-4.86,81.28-51.66c0,0,21.84-36.52,16.58-73.69l-33-27.08Z"/><polygon class="cls-3" points="499.85 238.25 457.11 261.26 457.11 287.56 499.85 310.57 499.85 238.25"/><path class="cls-3" d="M457.11,310.58A13.15,13.15,0,0,1,444,323.73H355.19A13.15,13.15,0,0,1,342,310.58V238.25a13.15,13.15,0,0,1,13.15-13.15H444a13.15,13.15,0,0,1,13.15,13.15Z"/></svg>